<svg width="24" height="24" viewBox="0 0 24 24" fill="none" xmlns="http://www.w3.org/2000/svg">
<path d="M12 0C5.37 0 0 5.36999 0 12C0 17.31 3.435 21.795 8.20499 23.385C8.80499 23.49 9.02999 23.13 9.02999 22.815C9.02999 22.53 9.01499 21.585 9.01499 20.58C5.99999 21.135 5.22 19.845 4.98 19.17C4.845 18.825 4.26 17.76 3.75 17.475C3.33 17.25 2.73 16.695 3.735 16.68C4.68 16.665 5.355 17.55 5.57999 17.91C6.65999 19.725 8.38499 19.215 9.07499 18.9C9.17999 18.12 9.49499 17.595 9.84001 17.295C7.16999 16.995 4.38 15.96 4.38 11.37C4.38 10.065 4.845 8.98499 5.60999 8.14499C5.48999 7.84499 5.07 6.61499 5.72999 4.96499C5.72999 4.96499 6.73499 4.64999 9.02999 6.19499C9.99001 5.92499 11.01 5.78999 12.03 5.78999C13.05 5.78999 14.07 5.92499 15.03 6.19499C17.325 4.635 18.33 4.96499 18.33 4.96499C18.99 6.61499 18.57 7.84499 18.45 8.14499C19.215 8.98499 19.68 10.05 19.68 11.37C19.68 15.975 16.875 16.995 14.205 17.295C14.64 17.67 15.015 18.39 15.015 19.515C15.015 21.12 15 22.41 15 22.815C15 23.13 15.225 23.505 15.825 23.385C20.7096 21.7359 23.9987 17.1555 24 12C24 5.36999 18.63 0 12 0Z" fill="rgba(255, 255, 255, 0.55)"/>
</svg>
