<svg width="25" height="24" viewBox="0 0 25 24" fill="none" xmlns="http://www.w3.org/2000/svg">
<path d="M5.24659 2.62461C5.24624 3.32035 4.96953 3.98746 4.47732 4.47917C3.98511 4.97089 3.31772 5.24694 2.62198 5.24659C1.92624 5.24624 1.25914 4.96953 0.767418 4.47732C0.275701 3.98511 -0.000347542 3.31772 3.28386e-07 2.62198C0.000348199 1.92624 0.277064 1.25914 0.769273 0.767418C1.26148 0.275701 1.92887 -0.000347542 2.62461 3.28386e-07C3.32035 0.000348199 3.98746 0.277064 4.47917 0.769273C4.97089 1.26148 5.24694 1.92887 5.24659 2.62461ZM5.32529 7.18914H0.0786991V23.611H5.32529V7.18914ZM13.6149 7.18914H8.39454V23.611H13.5624V14.9934C13.5624 10.1928 19.819 9.74685 19.819 14.9934V23.611H25V13.2096C25 5.11674 15.7398 5.41842 13.5624 9.39271L13.6149 7.18914Z" fill="white" fill-opacity="0.55"/>
</svg>
