<svg width="26" height="21" viewBox="0 0 26 21" fill="none" xmlns="http://www.w3.org/2000/svg">
<path d="M25.1238 2.41298C24.1874 2.82715 23.1945 3.09915 22.1778 3.21999C23.2495 2.57909 24.0515 1.57043 24.4345 0.381978C23.4288 0.980487 22.3262 1.39993 21.1771 1.62683C20.4051 0.800909 19.382 0.253156 18.2666 0.068724C17.1513 -0.115708 16.0063 0.0735148 15.0095 0.606975C14.0128 1.14043 13.2203 1.98824 12.7551 3.0186C12.29 4.04895 12.1783 5.20412 12.4374 6.30452C10.3979 6.2023 8.40273 5.67231 6.5814 4.74896C4.76006 3.82562 3.15327 2.52955 1.86534 0.94492C1.40945 1.72795 1.16988 2.61808 1.17116 3.52415C1.17116 5.3025 2.07629 6.87359 3.45236 7.79343C2.63801 7.76779 1.84158 7.54787 1.12946 7.15199V7.21577C1.12971 8.40016 1.53955 9.54801 2.2895 10.4647C3.03945 11.3814 4.08335 12.0106 5.24421 12.2455C4.48824 12.4503 3.69558 12.4805 2.92622 12.3338C3.25352 13.3532 3.89144 14.2448 4.75068 14.8837C5.60991 15.5226 6.64743 15.8767 7.71797 15.8966C6.65399 16.7322 5.43576 17.3499 4.1329 17.7144C2.83004 18.0789 1.46812 18.183 0.125 18.0208C2.46961 19.5287 5.19895 20.3291 7.98656 20.3265C17.4217 20.3265 22.5813 12.5104 22.5813 5.73176C22.5813 5.511 22.5752 5.28779 22.5654 5.06948C23.5697 4.34362 24.4365 3.44445 25.125 2.41421L25.1238 2.41298Z" fill="white" fill-opacity="0.55"/>
</svg>
